<svg width="375" height="214" viewBox="0 0 375 214" fill="none" xmlns="http://www.w3.org/2000/svg">
<g clip-path="url(#clip0)">
<rect width="375" height="214" rx="5" fill="#F5EBDD"/>
<path d="M122.583 -39.4912H128.092C154.176 -39.4912 175.319 -18.3564 175.319 7.71725V100.859H75.3558V7.71725C75.3558 -18.3564 96.5016 -39.4912 122.583 -39.4912Z" fill="#FFB7D5"/>
<path d="M143.513 45.4013V102.318H99.1057V45.4013H143.513ZM144.662 44.2521H97.956V103.467H144.662V44.2521Z" fill="#CA7358"/>
<path d="M144.662 44.2521H97.956V56.4945H144.662V44.2521Z" fill="#CA7358"/>
<path d="M97.7318 14.6558V102.602H70.9812V14.6558H97.7318ZM98.8815 13.5066H69.8315V103.752H98.8815V13.5066Z" fill="#CA7358"/>
<path d="M180.179 -3.13737V102.307H144.887V-3.13737H180.179ZM181.329 -4.28662H143.737V103.456H181.329V-4.28662Z" fill="#CA7358"/>
<path d="M158.91 10.0905H159.459C162.06 10.0905 164.167 12.1965 164.167 14.7966V25.7462H154.202V14.7966C154.202 12.1965 156.312 10.0905 158.91 10.0905Z" fill="#CA7358"/>
<path d="M153.064 18.6294H165.308" stroke="#FFB7D5" stroke-width="4" stroke-linecap="round" stroke-linejoin="round"/>
<path d="M158.91 38.1782H159.459C162.06 38.1782 164.167 40.2842 164.167 42.8844V53.8397H154.202V42.8873C154.202 40.2871 156.309 38.1811 158.91 38.1811V38.1782Z" fill="#F5EBDD"/>
<path d="M153.064 46.7201H165.308" stroke="#FFB7D5" stroke-width="4" stroke-linecap="round" stroke-linejoin="round"/>
<path d="M158.91 66.2689H159.459C162.06 66.2689 164.167 68.3749 164.167 70.9751V81.9246H154.202V70.9751C154.202 68.3749 156.312 66.2689 158.91 66.2689Z" fill="#F5EBDD"/>
<path d="M153.064 74.8077H165.308" stroke="#FFB7D5" stroke-width="4" stroke-linecap="round" stroke-linejoin="round"/>
<path d="M158.91 94.351H159.459C162.06 94.351 164.167 96.457 164.167 99.0571V109.113H154.202V99.0571C154.202 96.457 156.312 94.351 158.91 94.351Z" fill="#30242A"/>
<path d="M78.4312 33.3628H78.9802C81.5814 33.3628 83.6882 35.4688 83.6882 38.069V49.0185H73.7232V38.069C73.7232 35.4688 75.8329 33.3628 78.4312 33.3628Z" fill="#F5EBDD"/>
<path d="M72.585 41.9019H84.8293" stroke="#FFB7D5" stroke-width="4" stroke-linecap="round" stroke-linejoin="round"/>
<path d="M78.4312 61.4507H78.9802C81.5814 61.4507 83.6882 63.5567 83.6882 66.1569V77.1121H73.7232V66.1598C73.7203 63.5596 75.8272 61.4536 78.4283 61.4507C78.4312 61.4507 78.4312 61.4507 78.4312 61.4507Z" fill="#F5EBDD"/>
<path d="M72.585 69.9924H84.8293" stroke="#FFB7D5" stroke-width="4" stroke-linecap="round" stroke-linejoin="round"/>
<path d="M78.4312 89.5413H78.9802C81.5814 89.5413 83.6882 91.6473 83.6882 94.2475V105.197H73.7232V94.2475C73.7232 91.6473 75.8329 89.5413 78.4312 89.5413Z" fill="#CA7358"/>
<path d="M72.585 98.0802H84.8293" stroke="#FFB7D5" stroke-width="4" stroke-linecap="round" stroke-linejoin="round"/>
<path d="M181.329 -4.28662H143.737V0.41095H181.329V-4.28662Z" fill="#CA7358"/>
<path d="M98.8815 11.2283H69.8315V15.9259H98.8815V11.2283Z" fill="#CA7358"/>
<path d="M116.325 67.5963H106.357V80.4076H116.325V67.5963Z" fill="#F5EBDD"/>
<path d="M105.216 73.2908H117.463" stroke="#FFB7D5" stroke-width="4" stroke-linecap="round" stroke-linejoin="round"/>
<path d="M111.341 80.9764V73.2908" stroke="#FFB7D5" stroke-width="4" stroke-linecap="round" stroke-linejoin="round"/>
<path d="M116.325 90.7336H106.357V103.545H116.325V90.7336Z" fill="#CA7358"/>
<path d="M105.216 96.4253H117.463" stroke="#FFB7D5" stroke-width="4" stroke-linecap="round" stroke-linejoin="round"/>
<path d="M111.341 104.114V96.4253" stroke="#FFB7D5" stroke-width="4" stroke-linecap="round" stroke-linejoin="round"/>
<path d="M135.12 67.5963H125.152V80.4076H135.12V67.5963Z" fill="#30242A"/>
<path d="M124.014 73.2908H136.261" stroke="#FFB7D5" stroke-width="4" stroke-linecap="round" stroke-linejoin="round"/>
<path d="M130.136 80.9764V73.2908" stroke="#FFB7D5" stroke-width="4" stroke-linecap="round" stroke-linejoin="round"/>
<path d="M135.12 90.7336H125.152V103.545H135.12V90.7336Z" fill="#F5EBDD"/>
<path d="M124.014 96.4253H136.261" stroke="#FFB7D5" stroke-width="4" stroke-linecap="round" stroke-linejoin="round"/>
<path d="M130.136 104.114V96.4253" stroke="#FFB7D5" stroke-width="4" stroke-linecap="round" stroke-linejoin="round"/>
<path d="M188.135 100.905H62.5395V109.446H188.135V100.905Z" fill="#F5EBDD"/>
<path d="M127.322 -47.9871H123.353C92.1356 -47.9871 66.8135 -22.6805 66.8135 8.53323V109.446H183.864V8.53323C183.864 -22.6805 158.548 -47.9871 127.322 -47.9871ZM121.065 100.904H75.3644V29.7341H121.065V100.904ZM121.065 21.1923H75.3644V8.82341C75.3644 -16.8308 95.4381 -38.0029 121.065 -39.3763V21.1923ZM175.319 100.904H129.619V29.7341H175.319V100.904ZM175.319 21.1923H129.619V-39.3763C155.245 -38.0029 175.319 -16.8308 175.319 8.82341V21.1923Z" fill="#F5EBDD"/>
<path d="M155.412 93.4027C155.412 93.4027 135.678 46.0535 134.815 33.7105C131.918 -7.83216 177.003 15.8338 184.054 19.9194C189.187 22.896 209.319 34.1558 213.337 38.1696C215.924 40.7554 214.124 42.6718 214.124 42.6718C214.124 42.6718 217.145 46.6367 212.897 47.1079C215.918 51.0728 211.101 51.6101 211.101 51.6101C211.101 51.6101 212.391 55.4802 207.387 54.3166C201.995 53.061 161.112 35.3712 161.112 35.3712C161.112 35.3712 170.246 64.1973 173.097 73.3166L155.412 93.4027Z" fill="#A15842"/>
<path d="M199.483 51.0155C200.454 50.823 201.11 50.2627 200.92 49.0589C200.302 45.1054 193.694 41.3704 193.694 41.3704C193.694 41.3704 196.344 34.9949 191.142 30.0703" stroke="#30242A" stroke-width="4" stroke-miterlimit="10" stroke-linecap="round"/>
<path d="M211.034 51.4061C208.663 50.0184 199.972 44.9359 197.911 43.8785" stroke="#30242A" stroke-width="4" stroke-miterlimit="10" stroke-linecap="round"/>
<path d="M212.977 46.9787C210.011 45.2031 202.785 40.7067 199.802 39.1437" stroke="#30242A" stroke-width="4" stroke-miterlimit="10" stroke-linecap="round"/>
<path d="M214.055 42.123C210.319 39.6464 203.271 35.058 200.483 33.6501" stroke="#30242A" stroke-width="4" stroke-miterlimit="10" stroke-linecap="round"/>
<path d="M197.577 43.3326C198.572 41.534 200.273 37.9599 200.365 32.2308" stroke="#30242A" stroke-width="4" stroke-miterlimit="10" stroke-linecap="round"/>
<path d="M161.003 36.0435L154.271 32.9865" stroke="#30242A" stroke-width="4" stroke-linecap="round" stroke-linejoin="round"/>
<path d="M106.329 170.397H58.4408V175.933H106.329V170.397Z" fill="#A15842"/>
<path d="M114.216 199.12L102.354 127.967H109.62C111.238 127.967 112.551 126.654 112.551 125.036C112.551 123.418 111.238 122.105 109.62 122.105H55.2188C53.6006 122.105 52.2871 123.418 52.2871 125.036C52.2871 126.654 53.6006 127.967 55.2188 127.967H62.4044L50.5424 199.114C50.3125 200.453 51.215 201.723 52.5544 201.953C52.6924 201.976 52.8303 201.987 52.9683 201.987C54.1266 201.987 55.1269 201.18 55.374 200.051L71.099 127.967H93.6705L109.381 200.048C109.625 201.177 110.626 201.984 111.784 201.984C113.143 201.987 114.247 200.887 114.25 199.531C114.25 199.393 114.239 199.255 114.216 199.12Z" fill="#FFBE21"/>
<path d="M109.62 127.967C111.238 127.967 112.551 126.654 112.551 125.036C112.551 123.418 111.238 122.105 109.62 122.105H55.2188C53.6006 122.105 52.2871 123.418 52.2871 125.036C52.2871 126.654 53.6006 127.967 55.2188 127.967H62.4044L62.3901 128.056H71.0674L71.0875 127.967H93.659L93.6791 128.056H102.368L102.354 127.967H109.62Z" fill="#A15842"/>
<path d="M293.071 67.4698H292.999C292.488 68.395 289.116 74.0522 283.192 74.0522C277.269 74.0522 273.897 68.395 273.383 67.4698H273.314L264.093 109.076H302.292L293.071 67.4698Z" fill="#3EC1F3"/>
<path d="M268.462 89.6016C276.286 90.4204 288.435 97.405 292.657 108.955" stroke="#F5EBDD" stroke-width="4" stroke-miterlimit="10" stroke-linecap="round"/>
<path d="M273.532 109.291C274.409 99.8817 281.867 84.3294 295.29 79.4652" stroke="#F5EBDD" stroke-width="4" stroke-miterlimit="10" stroke-linecap="round"/>
<path d="M283.052 70.9866C279.755 74.4602 275.599 77.6953 270.896 79.8674" stroke="#F5EBDD" stroke-width="4" stroke-miterlimit="10" stroke-linecap="round"/>
<path d="M283.192 74.0522C289.116 74.0522 292.488 68.395 292.999 67.4698H273.383C273.897 68.395 277.266 74.0522 283.192 74.0522Z" fill="#30242A"/>
<path d="M229.369 201.984C227.975 201.984 226.843 200.855 226.843 199.459C226.843 199.192 226.886 198.924 226.969 198.669L234.896 174.557C235.241 173.526 236.207 172.831 237.296 172.833H242.844C244.238 172.833 245.37 173.963 245.373 175.356C245.373 175.787 245.264 176.212 245.051 176.591L231.577 200.703C231.125 201.496 230.283 201.987 229.369 201.984Z" fill="#A15842"/>
<path d="M335.42 201.984C336.814 201.984 337.947 200.855 337.947 199.459C337.947 199.192 337.904 198.924 337.82 198.669L329.893 174.557C329.548 173.526 328.58 172.831 327.493 172.833H321.943C320.549 172.833 319.417 173.965 319.417 175.359C319.417 175.79 319.529 176.215 319.738 176.591L333.213 200.703C333.664 201.496 334.509 201.987 335.42 201.984Z" fill="#A15842"/>
<path d="M347.656 108.604H217.579V183.042H347.656V108.604Z" fill="#FFB7D5"/>
<path d="M337.866 118.198V173.442H227.369V118.198H337.866ZM339.016 117.049H226.219V174.592H339.016V117.049Z" fill="#CA7358"/>
<path d="M282.497 116.945V174.701" stroke="#CA7358" stroke-width="4" stroke-miterlimit="10"/>
<path d="M295.569 149.17C297.418 149.17 298.917 147.672 298.917 145.823C298.917 143.974 297.418 142.476 295.569 142.476C293.72 142.476 292.22 143.974 292.22 145.823C292.22 147.672 293.72 149.17 295.569 149.17Z" fill="#30242A"/>
<path d="M269.666 149.17C271.516 149.17 273.015 147.672 273.015 145.823C273.015 143.974 271.516 142.476 269.666 142.476C267.817 142.476 266.318 143.974 266.318 145.823C266.318 147.672 267.817 149.17 269.666 149.17Z" fill="#30242A"/>
<path d="M90.848 86.3635C95.4956 86.3635 99.2609 90.1273 99.2609 94.7732V122.186H82.435V94.7732C82.435 90.1273 86.2032 86.3635 90.848 86.3635Z" fill="#4756DF"/>
<path d="M99.2637 97.1062H82.435V112.779H99.2637V97.1062Z" fill="#3EC1F3"/>
<path d="M94.5873 82.0022H87.1086V87.2974H94.5873V82.0022Z" fill="#30242A"/>
<path d="M193.757 37.5433C199.504 37.5433 204.162 32.8867 204.162 27.1426C204.162 21.3984 199.504 16.7418 193.757 16.7418C188.011 16.7418 183.353 21.3984 183.353 27.1426C183.353 32.8867 188.011 37.5433 193.757 37.5433Z" fill="#30242A"/>
<path d="M185.678 33.5726C186.509 33.949 179.464 17.4831 175.934 20.0919C172.614 22.5369 181.476 31.662 185.678 33.5726Z" fill="#FFBE21"/>
<path d="M184.784 33.541C185.474 34.403 202.101 28.944 199.88 25.5595C197.747 22.3128 184.094 32.6848 184.784 33.541Z" fill="#FFBE21"/>
<path d="M205.162 21.5859C208.863 21.5859 211.862 18.5875 211.862 14.8887C211.862 11.1899 208.863 8.19141 205.162 8.19141C201.462 8.19141 198.463 11.1899 198.463 14.8887C198.463 18.5875 201.462 21.5859 205.162 21.5859Z" fill="#30242A"/>
<path d="M159.404 133.586H193.617L195.422 125.036H154.199L159.404 133.586Z" fill="#CA7358"/>
<path d="M159.106 105.372C159.106 105.372 166.093 96.2529 179.205 95.3967L187.911 76.7012C185.586 76.3306 183.91 76.095 183.91 76.095C184.255 75.2618 185.428 72.5036 186.845 69.1018C184.281 67.398 180.093 64.0479 179.125 59.8216C182.2 59.359 188.322 56.4571 185.905 51.3803C182.944 45.1542 175.109 49.9437 175.109 49.9437C172.729 47.2459 171.212 43.9015 170.746 40.336C169.795 40.4337 167.07 40.1435 165.136 39.0977L165.006 39.0229C163.972 41.0543 163.043 43.1373 162.224 45.2663C162.008 45.8122 161.802 46.3408 161.583 46.8436C161.583 46.8436 158.878 46.3839 158.324 47.5016C157.637 48.8807 159.695 50.662 159.695 50.662C158.051 53.7535 156.593 56.2847 157.122 59.4912C157.588 62.3212 160.258 65.7603 166.55 66.335L163.388 76.3076L151.604 96.7614C153.915 98.1147 157.019 100.692 159.106 105.372Z" fill="#CA7358"/>
<path d="M242.367 65.3322C238.656 60.7036 225.409 41.8041 220.985 38.2587C218.134 35.9774 216.424 37.9714 216.424 37.9714C216.424 37.9714 212.147 35.4057 212.147 39.6809C207.87 37.1152 207.87 41.9593 207.87 41.9593C207.87 41.9593 203.878 41.0974 205.591 45.9501C207.433 51.1677 228.113 88.8287 228.113 88.8287C228.113 88.8287 206.729 80.85 198.463 78.7239C196.945 78.3332 195.085 77.9482 193.208 77.5976C191.998 80.4306 190.107 85.0678 187.058 92.8252C182.919 103.327 184.931 113.825 196.908 117.991L199.032 107.935C199.032 107.935 221.163 116.25 233.523 115.914C275.438 114.776 247.5 71.7422 242.367 65.3322Z" fill="#CA7358"/>
<path d="M170.746 40.336C171.209 43.913 172.732 47.266 175.121 49.9696C175.121 49.9696 182.956 45.1657 185.916 51.4062C188.334 56.483 182.212 59.3848 179.136 59.8474C180.105 64.0738 184.293 67.4239 186.856 69.1276C188.96 64.0738 191.599 57.5949 192.841 53.9C194.677 48.4238 195.626 39.9366 187.379 33.8053C179.662 28.0792 170.818 31.8775 168.823 33.8714C167.639 35.0551 166.524 36.1699 165.018 39.0431L165.147 39.1178C167.07 40.132 169.795 40.4222 170.746 40.336Z" fill="#30242A"/>
<path d="M187.058 92.8338C190.107 85.0936 191.998 80.4449 193.208 77.6062C191.357 77.2586 189.492 76.9454 187.923 76.6954L179.225 95.3967C166.113 96.2586 159.126 105.372 159.126 105.372C157.027 100.692 153.923 98.1147 151.627 96.7528L149 101.312C146.269 106.203 146.378 112.182 149.287 116.965L154.196 125.03H195.422L196.908 117.994C184.931 113.834 182.919 103.335 187.058 92.8338Z" fill="#FFBE21"/>
<path d="M166.728 66.924C168.516 66.9153 170.295 66.651 172.011 66.1425" stroke="#30242A" stroke-width="4" stroke-miterlimit="10" stroke-linecap="round"/>
<path d="M208.695 51.7854C208.905 51.0557 209.422 50.5816 210.437 50.6534C214.429 50.9407 218.703 57.2099 218.703 57.2099C218.703 57.2099 224.839 54.0495 230.183 58.8045" stroke="#30242A" stroke-width="4" stroke-miterlimit="10" stroke-linecap="round"/>
<path d="M208.451 41.8041C210.681 45.3179 214.826 51.8601 215.852 53.5035" stroke="#30242A" stroke-width="4" stroke-miterlimit="10" stroke-linecap="round"/>
<path d="M212.566 39.3649C214.866 42.7494 218.89 48.5244 220.416 50.9407" stroke="#30242A" stroke-width="4" stroke-miterlimit="10" stroke-linecap="round"/>
<path d="M217.068 38.0375C219.942 41.7036 224.345 47.3924 225.831 49.8173" stroke="#30242A" stroke-width="4" stroke-miterlimit="10" stroke-linecap="round"/>
<path d="M216.424 53.5035C218.148 52.3543 221.554 50.3689 227.257 49.8" stroke="#30242A" stroke-width="4" stroke-miterlimit="10" stroke-linecap="round"/>
<path d="M183.844 75.4859L178.791 74.8796" stroke="#30242A" stroke-width="4" stroke-miterlimit="10" stroke-linecap="round"/>
<path d="M165.961 130.736L165.676 130.167" stroke="#30242A" stroke-width="4" stroke-miterlimit="10" stroke-linecap="round"/>
<path d="M198.75 108.487L195.896 107.366" stroke="#30242A" stroke-width="4" stroke-miterlimit="10" stroke-linecap="round"/>
<path d="M234.669 90.837L228.188 88.2914" stroke="#30242A" stroke-width="4" stroke-miterlimit="10" stroke-linecap="round"/>
<path d="M195.422 125.036H154.199" stroke="#30242A" stroke-width="4" stroke-linecap="round" stroke-linejoin="round"/>
<path d="M178.791 95.3966L174.626 104.694C173.35 107.538 170.522 109.369 167.403 109.369H146.996" stroke="#30242A" stroke-width="4" stroke-linecap="round" stroke-linejoin="round"/>
<path d="M161.253 54.127C161.744 54.5494 163.739 55.124 164.805 53.6846" stroke="#30242A" stroke-width="4" stroke-miterlimit="10" stroke-linecap="round"/>
<path d="M181.505 53.2334L177.894 54.6326" stroke="#A15842" stroke-width="4" stroke-miterlimit="10" stroke-linecap="round"/>
<path d="M168.039 47.5878C166.929 47.8636 165.803 47.1913 165.527 46.0794C165.515 46.0363 165.506 45.9932 165.498 45.9501" stroke="#30242A" stroke-width="4" stroke-linecap="round" stroke-linejoin="round"/>
<path d="M177.736 58.3217L176.431 63.6514C176.207 64.5363 176.745 65.4356 177.627 65.6568C177.886 65.7229 178.159 65.7229 178.42 65.6626L183.292 64.5133C184.18 64.2979 184.724 63.4043 184.508 62.5194C184.448 62.2665 184.324 62.0281 184.155 61.8298L180.588 57.6609C179.993 56.9685 178.949 56.8909 178.257 57.4885C178.004 57.7069 177.823 57.9971 177.736 58.3217Z" fill="#F4E6D8"/>
<path d="M188.71 182.16C185.859 178.738 175.94 166.357 175.94 166.357" stroke="#30242A" stroke-width="4" stroke-linecap="round" stroke-linejoin="round"/>
<path d="M265.74 154.399C264.694 151.572 262.774 146.834 260.405 141.146L234.986 148.561L232.071 149.481C233.382 157.953 234.388 162.085 234.388 162.085C234.388 162.085 207.019 137.005 193.619 133.586H159.393L147.703 201.984H249.768C278.861 201.984 270.592 167.501 265.74 154.399Z" fill="#4856DF"/>
<path d="M238.064 89.0327C237.383 87.4094 235.647 86.49 233.919 86.8405C228.852 87.9725 228.458 97.563 227.257 103.091C225.262 112.213 220.985 115.632 220.701 121.617C220.413 127.363 229.539 129.596 229.539 129.596C229.849 132.604 230.165 135.399 230.484 137.977L255.887 130.386C248.92 113.969 240.668 95.0031 238.064 89.0327Z" fill="#A15842"/>
<path d="M232.057 149.414V149.481L234.971 148.561L232.057 149.414Z" fill="#A15842"/>
<path d="M260.411 141.137C260.336 140.962 260.265 140.783 260.19 140.605L234.986 148.561L260.411 141.137Z" fill="#3EC1F3"/>
<path d="M260.19 140.608C258.865 137.431 257.405 133.968 255.878 130.389L230.476 137.979C231.019 142.415 231.557 146.222 232.048 149.417L234.974 148.555L260.19 140.608Z" fill="#3EC1F3"/>
<path d="M183.174 133.497C192.286 143.05 239.4 191.477 254.056 186.593C264.757 183.027 249 147.897 247.5 143.275" stroke="#3EC1F3" stroke-width="4" stroke-linecap="round" stroke-linejoin="round"/>
<path d="M246.77 172.385C243.467 169.426 237.572 164.148 234.439 161.361" stroke="#30242A" stroke-width="4" stroke-linecap="round" stroke-linejoin="round"/>
<path d="M228.398 123.042L228.955 128.998" stroke="#30242A" stroke-width="4" stroke-linecap="round" stroke-linejoin="round"/>
<path d="M235.56 87.3462L236.641 90.3745" stroke="#30242A" stroke-width="4" stroke-linecap="round" stroke-linejoin="round"/>
<path d="M232.974 87.6334L234.721 91.9288" stroke="#30242A" stroke-width="4" stroke-linecap="round" stroke-linejoin="round"/>
<path d="M166.731 171.592L166.57 171.543L172.517 133.529H159.393C159.393 133.529 106.947 153.537 94.9725 172.629C83.6537 190.676 104.38 201.984 110.367 201.984H162.583L166.731 171.592Z" fill="#4856DF"/>
<path d="M221.839 201.984C228.682 201.984 226.403 194.287 221.551 191.724C216.7 189.161 211.003 186.593 205.016 178.614C199.029 170.635 191.901 172.629 187.339 178.327C187.339 178.327 183.861 177.077 178.751 175.382L174.75 201.981L221.839 201.984Z" fill="#CA7358"/>
<path d="M167.231 171.742L166.731 171.592L162.583 201.984H174.753L178.754 175.373C175.431 174.284 171.422 172.994 167.231 171.742Z" fill="#3EC1F3"/>
<path d="M218.703 198.85L222.914 201.41" stroke="#30242A" stroke-width="4" stroke-linecap="round" stroke-linejoin="round"/>
<path d="M138.592 164.935C150.566 167.214 155.746 168.67 166.579 172.118" stroke="#30242A" stroke-width="4" stroke-linecap="round" stroke-linejoin="round"/>
<path d="M215.283 200.275L217.74 201.697" stroke="#30242A" stroke-width="4" stroke-linecap="round" stroke-linejoin="round"/>
<path d="M187.914 177.973L191.904 179.47" stroke="#30242A" stroke-width="4" stroke-linecap="round" stroke-linejoin="round"/>
<path d="M284.098 70.5786C284.707 66.9814 287.478 52.7134 294.258 44.9933" stroke="#30242A" stroke-width="4" stroke-miterlimit="10" stroke-linecap="round"/>
<path d="M298.43 57.447C304.35 54.8888 308.683 51.7357 308.107 50.4045C307.531 49.0732 302.265 50.0679 296.345 52.6261C290.425 55.1843 286.093 58.3374 286.668 59.6686C287.244 60.9999 292.51 60.0052 298.43 57.447Z" fill="#30242A"/>
<path d="M299.031 20.2012C301.172 17.3471 302.1 14.4285 301.104 13.6822C300.109 12.9359 297.566 14.6445 295.425 17.4986C293.285 20.3526 292.356 23.2713 293.352 24.0176C294.348 24.7639 296.891 23.0552 299.031 20.2012Z" fill="#30242A"/>
<path d="M310.578 39.4395C310.161 38.0834 307.46 37.6467 304.039 38.2184C306.543 34.8368 307.577 31.5355 306.339 30.4926C305.1 29.4496 302.027 31.0241 299.107 34.0553C299.107 30.5903 298.213 27.9987 296.808 27.8177C295.014 27.585 293.048 31.3631 292.416 36.2532C292.229 37.6496 292.177 39.0603 292.261 40.4681C295.006 39.609 297.929 41.1375 298.788 43.8814C299.006 44.5738 299.075 45.3036 298.992 46.0247C300.349 45.8667 301.688 45.5852 302.993 45.1829C307.704 43.7406 311.101 41.1692 310.578 39.4395Z" fill="#FFBE21"/>
<path d="M297.17 41.4565C295.81 40.3073 293.954 39.9338 292.255 40.4682C292.407 42.7983 292.985 44.5854 293.867 45.2519C294.687 46.0248 296.601 46.292 298.986 46.0248C299.185 44.2952 298.504 42.5799 297.17 41.4565Z" fill="#30242A"/>
<path d="M282.218 70.1217C282.02 66.0361 280.833 45.9874 276.383 34.1472" stroke="#30242A" stroke-width="4" stroke-miterlimit="10" stroke-linecap="round"/>
<path d="M267.54 58.6227C275.185 57.1663 281.174 54.8913 280.917 53.5415C280.66 52.1917 274.253 52.2781 266.608 53.7345C258.963 55.1909 252.974 57.4658 253.231 58.8157C253.488 60.1655 259.895 60.0791 267.54 58.6227Z" fill="#30242A"/>
<path d="M279.646 17.098C278.26 16.7935 276.556 18.9368 275.374 22.1949C273.65 18.3564 271.282 15.8367 269.77 16.3998C268.258 16.963 268.111 20.4222 269.327 24.4446C266.3 22.7552 263.61 22.2524 262.762 23.3902C261.679 24.8267 264.007 28.4038 267.962 31.3545C269.088 32.2021 270.293 32.9405 271.56 33.5582C272.155 30.7454 274.92 28.9497 277.734 29.5444C278.444 29.6938 279.117 29.9926 279.706 30.4179C280.232 29.1594 280.643 27.8521 280.933 26.519C281.988 21.7036 281.413 17.4859 279.646 17.098Z" fill="#FFBE21"/>
<path d="M274.834 29.7628C273.164 30.3834 271.928 31.8171 271.56 33.5611C273.667 34.5696 275.507 34.9431 276.521 34.5035C277.596 34.1644 278.769 32.6273 279.706 30.4208C278.295 29.4008 276.467 29.1537 274.834 29.7628Z" fill="#30242A"/>
<path d="M261.569 38.4512V38.4684C263.923 39.7987 264.869 42.7092 263.745 45.1686C262.619 47.6251 259.802 48.8117 257.255 47.9067V47.9268C263.688 50.866 269.87 51.1246 271.052 48.5014C272.233 45.8782 268.002 41.3875 261.569 38.4512Z" fill="#FFBE21"/>
<path d="M262.087 47.1941C260.868 46.5132 260.434 44.9703 261.115 43.7521C261.722 42.6689 263.027 42.1862 264.194 42.6143C264.061 40.8789 263.076 39.3246 261.561 38.4684L257.249 47.9066C258.882 48.4899 260.696 48.2227 262.087 47.1941Z" fill="#F5EBDD"/>
<path d="M261.023 43.9389C260.477 45.1341 260.94 46.5506 262.087 47.1942C263.533 46.134 264.329 44.4015 264.194 42.6144C262.955 42.1633 261.575 42.7379 261.023 43.9389Z" fill="#30242A"/>
</g>
<defs>
<clipPath id="clip0">
<rect width="375" height="214" fill="white"/>
</clipPath>
</defs>
</svg>
